<?xml version="1.0" encoding="utf-8"?>
<!-- Generator: Adobe Illustrator 24.3.0, SVG Export Plug-In . SVG Version: 6.00 Build 0)  -->
<svg version="1.1" id="Layer_1" xmlns="http://www.w3.org/2000/svg" xmlns:xlink="http://www.w3.org/1999/xlink" x="0px" y="0px"
	 viewBox="0 0 595.28 841.89" style="enable-background:new 0 0 595.28 841.89;" xml:space="preserve">
<g>
	<ellipse cx="150.83" cy="298.88" rx="65.16" ry="54"/>
	<path d="M585,796.56H25.56v-23.51c0-15.03,12.18-27.21,27.21-27.21h503.15c16.06,0,29.08,13.02,29.08,29.08V796.56z"/>
	<path d="M122.37,745.84l43.02-78.3c6.86-12.49,20.85-20.37,36.15-20.37h35.94c14.71,0,28.25,7.33,35.3,19.12l47.58,79.55H122.37z"
		/>
	<path d="M312.37,697.5l64.41-25.73c4.6-1.84,6.7-6.73,4.68-10.93l-3.64-7.6c-1.91-3.99-7-5.81-11.37-4.06l-64.83,25.9L312.37,697.5
		z"/>
	<path d="M338.09,637.2l113.41-43.88c8.17-3.16,17.63-0.21,21.97,6.85l20.12,32.65c4.17,6.77,1.15,15.35-6.56,18.63L374.93,699.2
		c-7.26,3.09-15.91,0.33-19.47-6.23l0,0l28.71-12.17c8.43-3.57,12.2-12.62,8.5-20.41l-4.4-9.27c-4.29-9.04-15.65-13.37-25.7-9.8
		l-31.76,11.28l0,0C328.34,646.53,331.54,639.74,338.09,637.2z"/>
	<path d="M159.58,67.58L56.87,108.61l-5.97-12.47c-6.76-14.11,0.29-30.54,15.74-36.72l46.78-18.69
		c15.44-6.17,33.44,0.26,40.19,14.36L159.58,67.58z"/>
	<path d="M370.14,391.65l-123.05,49.15c-7.49,2.99-10.91,10.96-7.63,17.8l0.73,1.53c3.28,6.84,12.01,9.96,19.5,6.97l123.05-49.15
		c7.49-2.99,10.91-10.96,7.63-17.8l-0.73-1.53C386.36,391.78,377.63,388.66,370.14,391.65z"/>
	<path d="M330.05,520.84L330.05,520.84c-7.56,3.64-16.91,0.99-20.9-5.91l-26.92-46.64l25.58-12.31l27.86,48.28
		C339.14,510.26,336.62,517.68,330.05,520.84z"/>
	<path d="M354.92,478.56L354.92,478.56c-4.7,2.07-10.35,0.26-12.61-4.03l-12.81-24.29l18.66-8.21l12.02,22.8
		C362.88,469.94,360.52,476.09,354.92,478.56z"/>
	<path d="M62.91,112.29l100.53-39l164.92,319.19l-78.85,31.2l-45.35-68.83c-1.8-2.73-0.81-6.28,2.2-7.89l0,0
		c27.92-14.93,38.38-47.07,23.91-73.5l0,0c-17.95-34.89-61.43-52.25-101.66-40.57h0L62.91,112.29z"/>
	<path d="M203.38,350.82c-18.22,11.12-46.65,31.44-70.82,64.45c-12.98,17.73-38.51,53.54-40.74,102.6
		c-3.29,72.46,46.56,123.52,59.02,135.59c21.72-15.2,43.44-30.4,65.16-45.6c-5.7-4.48-13.31-11.35-20.37-21
		c-2.72-3.72-9.05-12.9-14.45-28.2c-4.63-13.12-14.79-41.88-5.26-76.2c5.06-18.21,13.63-30.66,22.47-43.5
		c12.23-17.77,25.3-30.77,35.21-39.45C223.52,383.29,213.45,367.05,203.38,350.82z"/>
	<path d="M271.2,633.86l198.57-74.28c7.41-2.77,10.96-10.51,7.93-17.28l-2.89-6.45c-3.21-7.15-12.15-10.57-19.98-7.64l-197.83,74
		c-1.12,0.42-1.65,1.58-1.19,2.6l12.54,27.96C268.81,633.79,270.08,634.28,271.2,633.86z"/>
	<path d="M174.84,537.28c1.3,4.91,18.52,67.8,51.01,70.59c10.24,0.88,24.52-3.99,49.11-12.37c9.24-3.15,16.81-6.1,22.13-8.28
		c20.69,18.2,23.02,25.71,20.93,29.13c-1.97,3.23-7.01,1.41-16.63,6.22c-3.49,1.75-14.89,7.45-16.88,17.72
		c-0.81,4.21,0.21,7.87,1.12,10.18c-12.76-11.35-24.95-15.59-32.2-17.4c-10.47-2.61-20.77-2.14-41.39-1.2
		c-12.82,0.58-19.23,0.88-25.62,2.4c-15.29,3.64-27.06,11.45-35.6,19.2C158.84,614.74,166.84,576.01,174.84,537.28z"/>
</g>
</svg>
