<?xml version="1.0" encoding="utf-8"?>
<!-- Generator: Adobe Illustrator 24.3.0, SVG Export Plug-In . SVG Version: 6.00 Build 0)  -->
<svg version="1.1" id="Layer_1" xmlns="http://www.w3.org/2000/svg" xmlns:xlink="http://www.w3.org/1999/xlink" x="0px" y="0px"
	 viewBox="0 0 595.28 841.89" style="enable-background:new 0 0 595.28 841.89;" xml:space="preserve">
<style type="text/css">
	.st0{fill:none;stroke:#000000;stroke-width:16;stroke-miterlimit:10;}
	.st1{fill:none;stroke:#000000;stroke-width:14;stroke-miterlimit:10;}
</style>
<g>
	<path class="st0" d="M272.31,781.44H111.56c-37.95,0-68.72-31.26-68.72-69.83V322.58c0-38.56,30.77-69.83,68.72-69.83h321.5
		c37.95,0,68.72,31.26,68.72,69.83v139.65"/>
	<line class="st0" x1="42.84" y1="394.9" x2="501.78" y2="397.4"/>
	<path d="M387.68,505.88h-228.9c-4.58,0-8.29-3.71-8.29-8.29v-16.11c0-4.58,3.71-8.29,8.29-8.29h228.9c4.58,0,8.29,3.71,8.29,8.29
		v16.11C395.97,502.17,392.26,505.88,387.68,505.88z"/>
	<path d="M347.04,602.72H156.86c-4.58,0-8.29-3.71-8.29-8.29v-16.11c0-4.58,3.71-8.29,8.29-8.29h190.18c4.58,0,8.29,3.71,8.29,8.29
		v16.11C355.32,599.01,351.61,602.72,347.04,602.72z"/>
	<path d="M272.26,699.56H156.35c-4.58,0-8.29-3.71-8.29-8.29v-16.11c0-4.58,3.71-8.29,8.29-8.29h115.91c4.58,0,8.29,3.71,8.29,8.29
		v16.11C280.54,695.85,276.83,699.56,272.26,699.56z"/>
	<path d="M139.69,280.33v-56.52c0-4.58,3.71-8.29,8.29-8.29h15.59c4.58,0,8.29,3.71,8.29,8.29v56.52c0,4.58-3.71,8.29-8.29,8.29
		h-15.59C143.4,288.61,139.69,284.9,139.69,280.33z"/>
	<path d="M373.78,281.02V224.5c0-4.58,3.71-8.29,8.29-8.29h15.59c4.58,0,8.29,3.71,8.29,8.29v56.52c0,4.58-3.71,8.29-8.29,8.29
		h-15.59C377.5,289.3,373.78,285.59,373.78,281.02z"/>
	<path d="M256.23,281.02V224.5c0-4.58,3.71-8.29,8.29-8.29h15.6c4.58,0,8.29,3.71,8.29,8.29v56.52c0,4.58-3.71,8.29-8.29,8.29h-15.6
		C259.94,289.3,256.23,285.59,256.23,281.02z"/>
	<path class="st1" d="M387.9,767.24c5.41,0,10.6-2.18,14.43-6.07l157-159.53c18.97-19.27,19.92-49.56,2.12-67.64l-9.91-10.07
		c-17.8-18.08-47.6-17.12-66.57,2.15L328.22,685.35c-4.03,4.09-6.53,9.48-7.09,15.23l-4.97,51.38c-0.79,8.18,5.53,15.27,13.63,15.27
		H387.9z"/>
	<line class="st1" x1="450.02" y1="561.59" x2="524.79" y2="636.74"/>
</g>
</svg>
